<svg width="40" height="40" viewBox="0 0 40 40" fill="none" xmlns="http://www.w3.org/2000/svg">
<path fill-rule="evenodd" clip-rule="evenodd" d="M12.5 0H27.5C34.4025 0 40 5.5975 40 12.5V27.5C40 34.4025 34.4025 40 27.5 40H12.5C5.5975 40 0 34.4025 0 27.5V12.5C0 5.5975 5.5975 0 12.5 0ZM27.4998 36.2501C32.3248 36.2501 36.2498 32.3251 36.2498 27.5001V12.5001C36.2498 7.67507 32.3248 3.75007 27.4998 3.75007H12.4998C7.67482 3.75007 3.74982 7.67507 3.74982 12.5001V27.5001C3.74982 32.3251 7.67482 36.2501 12.4998 36.2501H27.4998ZM9.9999 20.0001C9.9999 14.4776 14.4774 10.0001 19.9999 10.0001C25.5224 10.0001 29.9999 14.4776 29.9999 20.0001C29.9999 25.5226 25.5224 30.0001 19.9999 30.0001C14.4774 30.0001 9.9999 25.5226 9.9999 20.0001ZM13.7497 20.0001C13.7497 23.4451 16.5547 26.2501 19.9997 26.2501C23.4447 26.2501 26.2497 23.4451 26.2497 20.0001C26.2497 16.5526 23.4447 13.7501 19.9997 13.7501C16.5547 13.7501 13.7497 16.5526 13.7497 20.0001ZM32.0828 9.25C32.0828 9.98592 31.4862 10.5825 30.7503 10.5825C30.0144 10.5825 29.4178 9.98592 29.4178 9.25C29.4178 8.51408 30.0144 7.9175 30.7503 7.9175C31.4862 7.9175 32.0828 8.51408 32.0828 9.25Z" fill="#FCFCFC"/>
</svg>
