<svg width="40" height="40" viewBox="0 0 40 40" fill="none" xmlns="http://www.w3.org/2000/svg">
<path d="M40 7.18087C38.5125 7.83337 36.9275 8.26587 35.275 8.47587C36.975 7.46087 38.2725 5.86587 38.8825 3.94337C37.2975 4.88837 35.5475 5.55587 33.6825 5.92837C32.1775 4.32587 30.0325 3.33337 27.6925 3.33337C23.1525 3.33337 19.4975 7.01837 19.4975 11.5359C19.4975 12.1859 19.5525 12.8109 19.6875 13.4059C12.87 13.0734 6.8375 9.80587 2.785 4.82837C2.0775 6.05587 1.6625 7.46087 1.6625 8.97337C1.6625 11.8134 3.125 14.3309 5.305 15.7884C3.9875 15.7634 2.695 15.3809 1.6 14.7784C1.6 14.8034 1.6 14.8359 1.6 14.8684C1.6 18.8534 4.4425 22.1634 8.17 22.9259C7.5025 23.1084 6.775 23.1959 6.02 23.1959C5.495 23.1959 4.965 23.1659 4.4675 23.0559C5.53 26.3034 8.545 28.6909 12.13 28.7684C9.34 30.9509 5.7975 32.2659 1.9625 32.2659C1.29 32.2659 0.645 32.2359 0 32.1534C3.6325 34.4959 7.9375 35.8334 12.58 35.8334C27.67 35.8334 35.92 23.3334 35.92 12.4984C35.92 12.1359 35.9075 11.7859 35.89 11.4384C37.5175 10.2834 38.885 8.84087 40 7.18087Z" fill="#FCFCFC"/>
</svg>
