<svg width="40" height="40" viewBox="0 0 40 40" fill="none" xmlns="http://www.w3.org/2000/svg">
<path fill-rule="evenodd" clip-rule="evenodd" d="M33.64 6.89663C36.0375 7.03163 37.215 7.38663 38.3 9.31663C39.43 11.2441 40 14.5641 40 20.4116V20.4191V20.4316C40 26.2516 39.43 29.5966 38.3025 31.5041C37.2175 33.4341 36.04 33.7841 33.6425 33.9466C31.245 34.0841 25.2225 34.1666 20.005 34.1666C14.7775 34.1666 8.7525 34.0841 6.3575 33.9441C3.965 33.7816 2.7875 33.4316 1.6925 31.5016C0.575 29.5941 0 26.2491 0 20.4291V20.4241V20.4166V20.4091C0 14.5641 0.575 11.2441 1.6925 9.31663C2.7875 7.38413 3.9675 7.03163 6.36 6.89413C8.7525 6.73413 14.7775 6.66663 20.005 6.66663C25.2225 6.66663 31.245 6.73413 33.64 6.89663ZM27.5001 20.4166L15.0001 12.9166V27.9166L27.5001 20.4166Z" fill="#FCFCFC"/>
</svg>
